<svg xmlns="http://www.w3.org/2000/svg" viewBox="0 0 400 300">
  <path d="M 0 210 Q 100 180 200 195 Q 300 205 400 190 L 400 260 L 0 260 Z" fill="#6b7a98" opacity="0.5"/>
  <path d="M 0 230 Q 150 210 280 225 Q 400 215 400 230 L 400 280 L 0 280 Z" fill="#5d7968" opacity="0.6"/>
  <g fill="#5d7968" opacity="0.85">
    <path d="M 30 225 L 40 170 L 50 225 Z"/>
    <path d="M 65 230 L 75 180 L 85 230 Z"/>
    <path d="M 340 225 L 350 170 L 360 225 Z"/>
    <path d="M 375 220 L 383 165 L 391 220 Z"/>
  </g>
  <path d="M 0 250 Q 200 240 400 250 L 400 300 L 0 300 Z" fill="#8ba591"/>
</svg>
