<svg xmlns="http://www.w3.org/2000/svg" viewBox="0 0 400 300">
  <path d="M 0 240 Q 200 230 400 240 L 400 300 L 0 300 Z" fill="#8ba591"/>
  <ellipse cx="200" cy="240" rx="170" ry="20" fill="#8c6f55"/>
  <path d="M 80 240 Q 70 125 110 65 Q 200 25 290 65 Q 330 125 320 240 Z" fill="#8c6f55"/>
  <path d="M 100 240 Q 95 135 125 85 Q 138 72 140 85 Q 115 145 120 240 Z" fill="#b89878" opacity="0.5"/>
  <path d="M 140 200 Q 145 150 155 100" stroke="#b89878" stroke-width="1.5" fill="none" opacity="0.5" stroke-linecap="round"/>
  <path d="M 260 200 Q 255 150 245 100" stroke="#b89878" stroke-width="1.5" fill="none" opacity="0.5" stroke-linecap="round"/>
  <path d="M 200 210 Q 205 160 195 85" stroke="#b89878" stroke-width="1.2" fill="none" opacity="0.4" stroke-linecap="round"/>
  <ellipse cx="200" cy="55" rx="125" ry="48" fill="#5d7968"/>
  <ellipse cx="140" cy="45" rx="52" ry="38" fill="#5d7968"/>
  <ellipse cx="265" cy="48" rx="58" ry="40" fill="#5d7968"/>
  <ellipse cx="170" cy="38" rx="35" ry="22" fill="#8ba591" opacity="0.55"/>
  <ellipse cx="245" cy="42" rx="32" ry="22" fill="#8ba591" opacity="0.55"/>
  <path d="M 160 240 Q 160 155 200 140 Q 240 155 240 240 Z" fill="#3d4a6b"/>
  <path d="M 170 240 Q 170 165 200 152 Q 230 165 230 240 Z" fill="#e8c97a" opacity="0.35"/>
  <path d="M 180 240 Q 180 175 200 165 Q 220 175 220 240 Z" fill="#f5ead0" opacity="0.55"/>
  <ellipse cx="200" cy="236" rx="25" ry="4" fill="#b89878" opacity="0.7"/>
</svg>
