<svg xmlns="http://www.w3.org/2000/svg" viewBox="0 0 200 200">
  <ellipse cx="100" cy="135" rx="50" ry="42" fill="#8c6f55"/>
  <ellipse cx="100" cy="140" rx="26" ry="28" fill="#faf2dc"/>
  <ellipse cx="78" cy="178" rx="14" ry="7" fill="#8c6f55"/>
  <ellipse cx="122" cy="178" rx="14" ry="7" fill="#8c6f55"/>
  <ellipse cx="78" cy="178" rx="7" ry="3.5" fill="#faf2dc"/>
  <ellipse cx="122" cy="178" rx="7" ry="3.5" fill="#faf2dc"/>
  <ellipse cx="55" cy="150" rx="11" ry="18" fill="#8c6f55"/>
  <ellipse cx="145" cy="150" rx="11" ry="18" fill="#8c6f55"/>
  <ellipse cx="100" cy="75" rx="42" ry="38" fill="#8c6f55"/>
  <circle cx="70" cy="48" r="12" fill="#8c6f55"/>
  <circle cx="130" cy="48" r="12" fill="#8c6f55"/>
  <circle cx="70" cy="50" r="7" fill="#b89878"/>
  <circle cx="130" cy="50" r="7" fill="#b89878"/>
  <ellipse cx="100" cy="90" rx="18" ry="14" fill="#faf2dc"/>
  <ellipse cx="100" cy="83" rx="5" ry="4" fill="#3d4a6b"/>
  <path d="M 100 87 L 100 94" stroke="#3d4a6b" stroke-width="1.2" stroke-linecap="round"/>
  <path d="M 100 94 Q 96 98 94 96" stroke="#3d4a6b" stroke-width="1.2" fill="none" stroke-linecap="round"/>
  <path d="M 100 94 Q 104 98 106 96" stroke="#3d4a6b" stroke-width="1.2" fill="none" stroke-linecap="round"/>
  <path d="M 78 70 Q 83 66 88 70" stroke="#3d4a6b" stroke-width="2" fill="none" stroke-linecap="round"/>
  <path d="M 112 70 Q 117 66 122 70" stroke="#3d4a6b" stroke-width="2" fill="none" stroke-linecap="round"/>
  <circle cx="74" cy="83" r="4.5" fill="#d8a89a" opacity="0.5"/>
  <circle cx="126" cy="83" r="4.5" fill="#d8a89a" opacity="0.5"/>
</svg>
