<svg xmlns="http://www.w3.org/2000/svg" viewBox="0 0 200 200">
  <ellipse cx="100" cy="145" rx="65" ry="32" fill="#9bacc4"/>
  <ellipse cx="100" cy="158" rx="48" ry="14" fill="#faf2dc"/>
  <circle cx="100" cy="115" r="28" fill="#9bacc4"/>
  <path d="M 78 98 Q 60 130 65 148 Q 78 150 82 125 Z" fill="#9bacc4"/>
  <path d="M 122 98 Q 140 130 135 148 Q 122 150 118 125 Z" fill="#9bacc4"/>
  <path d="M 78 105 Q 68 128 72 140 Q 78 138 80 122 Z" fill="#d8a89a" opacity="0.55"/>
  <path d="M 122 105 Q 132 128 128 140 Q 122 138 120 122 Z" fill="#d8a89a" opacity="0.55"/>
  <ellipse cx="88" cy="122" rx="9" ry="7" fill="#faf2dc"/>
  <ellipse cx="112" cy="122" rx="9" ry="7" fill="#faf2dc"/>
  <path d="M 100 119 Q 96 119 97 123 Q 100 125 103 123 Q 104 119 100 119 Z" fill="#d8a89a"/>
  <path d="M 82 110 Q 87 106 92 110" stroke="#3d4a6b" stroke-width="2" fill="none" stroke-linecap="round"/>
  <path d="M 108 110 Q 113 106 118 110" stroke="#3d4a6b" stroke-width="2" fill="none" stroke-linecap="round"/>
  <circle cx="78" cy="122" r="3.5" fill="#d8a89a" opacity="0.5"/>
  <circle cx="122" cy="122" r="3.5" fill="#d8a89a" opacity="0.5"/>
  <circle cx="160" cy="140" r="10" fill="#faf2dc"/>
  <ellipse cx="75" cy="178" rx="11" ry="4" fill="#9bacc4"/>
  <ellipse cx="125" cy="178" rx="11" ry="4" fill="#9bacc4"/>
</svg>
