<svg xmlns="http://www.w3.org/2000/svg" viewBox="0 0 200 200">
  <ellipse cx="105" cy="130" rx="70" ry="35" fill="#b89878"/>
  <ellipse cx="105" cy="150" rx="55" ry="14" fill="#faf2dc"/>
  <path d="M 155 115 Q 185 90 175 125 Q 165 140 145 135 Q 138 125 155 115 Z" fill="#b89878"/>
  <ellipse cx="180" cy="100" rx="8" ry="6" fill="#faf2dc"/>
  <ellipse cx="55" cy="128" rx="30" ry="25" fill="#b89878"/>
  <path d="M 28 132 Q 22 140 32 142 Q 48 142 52 134 Q 48 126 32 128 Z" fill="#b89878"/>
  <ellipse cx="38" cy="138" rx="10" ry="5" fill="#faf2dc"/>
  <path d="M 55 108 L 48 86 Q 65 90 70 110 Z" fill="#b89878"/>
  <path d="M 57 108 L 55 95 L 63 108 Z" fill="#d8a89a"/>
  <path d="M 68 102 L 66 90 Q 72 95 74 108 Z" fill="#b89878" opacity="0.7"/>
  <path d="M 52 125 Q 57 122 62 125" stroke="#3d4a6b" stroke-width="2" fill="none" stroke-linecap="round"/>
  <ellipse cx="25" cy="135" rx="2.5" ry="2" fill="#3d4a6b"/>
  <circle cx="68" cy="132" r="4" fill="#d8a89a" opacity="0.5"/>
</svg>
