<svg xmlns="http://www.w3.org/2000/svg" viewBox="0 0 200 200">
  <circle cx="152" cy="145" r="10" fill="#faf2dc"/>
  <ellipse cx="100" cy="145" rx="44" ry="32" fill="#9bacc4"/>
  <ellipse cx="100" cy="152" rx="28" ry="22" fill="#faf2dc"/>
  <ellipse cx="85" cy="178" rx="10" ry="5" fill="#9bacc4"/>
  <ellipse cx="115" cy="178" rx="10" ry="5" fill="#9bacc4"/>
  <ellipse cx="100" cy="92" rx="34" ry="32" fill="#9bacc4"/>
  <path d="M 82 64 Q 74 22 86 18 Q 96 24 92 64 Z" fill="#9bacc4"/>
  <path d="M 118 64 Q 126 22 114 18 Q 104 24 108 64 Z" fill="#9bacc4"/>
  <path d="M 84 60 Q 82 32 88 28 Q 90 32 88 60 Z" fill="#d8a89a" opacity="0.7"/>
  <path d="M 116 60 Q 118 32 112 28 Q 110 32 112 60 Z" fill="#d8a89a" opacity="0.7"/>
  <ellipse cx="86" cy="102" rx="10" ry="8" fill="#faf2dc"/>
  <ellipse cx="114" cy="102" rx="10" ry="8" fill="#faf2dc"/>
  <path d="M 100 100 Q 96 100 97 104 Q 100 107 103 104 Q 104 100 100 100 Z" fill="#d8a89a"/>
  <path d="M 100 107 L 100 110" stroke="#3d4a6b" stroke-width="1.2" stroke-linecap="round"/>
  <path d="M 100 110 Q 97 113 95 112" stroke="#3d4a6b" stroke-width="1.2" fill="none" stroke-linecap="round"/>
  <path d="M 100 110 Q 103 113 105 112" stroke="#3d4a6b" stroke-width="1.2" fill="none" stroke-linecap="round"/>
  <path d="M 82 90 Q 87 86 92 90" stroke="#3d4a6b" stroke-width="2" fill="none" stroke-linecap="round"/>
  <path d="M 108 90 Q 113 86 118 90" stroke="#3d4a6b" stroke-width="2" fill="none" stroke-linecap="round"/>
  <circle cx="78" cy="102" r="3.5" fill="#d8a89a" opacity="0.5"/>
  <circle cx="122" cy="102" r="3.5" fill="#d8a89a" opacity="0.5"/>
</svg>
