<svg xmlns="http://www.w3.org/2000/svg" viewBox="0 0 200 200">
  <rect x="130" y="145" width="16" height="32" rx="7" fill="#8c6f55" opacity="0.85"/>
  <rect x="58" y="145" width="16" height="32" rx="7" fill="#8c6f55" opacity="0.85"/>
  <ellipse cx="105" cy="118" rx="52" ry="32" fill="#8c6f55"/>
  <ellipse cx="108" cy="135" rx="35" ry="15" fill="#faf2dc"/>
  <rect x="72" y="143" width="17" height="33" rx="7" fill="#8c6f55"/>
  <ellipse cx="80" cy="176" rx="11" ry="4" fill="#8c6f55"/>
  <ellipse cx="80" cy="176" rx="6" ry="2" fill="#faf2dc"/>
  <rect x="118" y="147" width="17" height="28" rx="7" fill="#8c6f55"/>
  <ellipse cx="126" cy="174" rx="11" ry="4" fill="#8c6f55"/>
  <ellipse cx="126" cy="174" rx="6" ry="2" fill="#faf2dc"/>
  <circle cx="155" cy="110" r="7" fill="#8c6f55"/>
  <circle cx="50" cy="100" r="28" fill="#8c6f55"/>
  <circle cx="38" cy="78" r="10" fill="#8c6f55"/>
  <circle cx="62" cy="76" r="10" fill="#8c6f55"/>
  <circle cx="38" cy="79" r="5" fill="#b89878"/>
  <circle cx="62" cy="77" r="5" fill="#b89878"/>
  <ellipse cx="32" cy="108" rx="13" ry="10" fill="#faf2dc"/>
  <ellipse cx="23" cy="105" rx="4" ry="3" fill="#3d4a6b"/>
  <path d="M 42 95 Q 47 91 52 95" stroke="#3d4a6b" stroke-width="2" fill="none" stroke-linecap="round"/>
  <path d="M 28 115 Q 32 117 36 115" stroke="#3d4a6b" stroke-width="1" fill="none" stroke-linecap="round"/>
  <circle cx="58" cy="108" r="4" fill="#d8a89a" opacity="0.5"/>
</svg>
