<svg xmlns="http://www.w3.org/2000/svg" viewBox="0 0 200 200">
  <path d="M 78 176 Q 74 186 82 187 L 90 187 Q 94 186 90 176 Z" fill="#e8c97a"/>
  <path d="M 110 176 Q 106 186 110 187 L 118 187 Q 126 186 122 176 Z" fill="#e8c97a"/>
  <ellipse cx="100" cy="125" rx="58" ry="55" fill="#6b7a98"/>
  <path d="M 45 115 Q 40 140 52 170 Q 62 150 58 125 Z" fill="#3d4a6b" opacity="0.45"/>
  <path d="M 155 115 Q 160 140 148 170 Q 138 150 142 125 Z" fill="#3d4a6b" opacity="0.45"/>
  <ellipse cx="100" cy="135" rx="30" ry="35" fill="#faf2dc"/>
  <ellipse cx="100" cy="80" rx="55" ry="50" fill="#6b7a98"/>
  <path d="M 65 45 Q 58 28 70 30 Q 78 36 76 53 Z" fill="#3d4a6b" opacity="0.45"/>
  <path d="M 135 45 Q 142 28 130 30 Q 122 36 124 53 Z" fill="#3d4a6b" opacity="0.45"/>
  <path d="M 70 70 Q 66 105 100 112 Q 134 105 130 70 Q 120 58 100 60 Q 80 58 70 70 Z" fill="#faf2dc"/>
  <circle cx="85" cy="82" r="11" fill="#f5ead0"/>
  <circle cx="115" cy="82" r="11" fill="#f5ead0"/>
  <path d="M 78 84 Q 85 78 92 84" stroke="#3d4a6b" stroke-width="2.5" fill="none" stroke-linecap="round"/>
  <path d="M 108 84 Q 115 78 122 84" stroke="#3d4a6b" stroke-width="2.5" fill="none" stroke-linecap="round"/>
  <path d="M 100 90 L 96 98 Q 100 101 104 98 Z" fill="#e8c97a"/>
  <circle cx="78" cy="97" r="4.5" fill="#d8a89a" opacity="0.6"/>
  <circle cx="122" cy="97" r="4.5" fill="#d8a89a" opacity="0.6"/>
</svg>
