<svg xmlns="http://www.w3.org/2000/svg" viewBox="0 0 200 200">
  <path d="M 45 135 Q 45 75 100 75 Q 155 75 155 135 Q 100 145 45 135 Z" fill="#8c6f55"/>
  <path d="M 55 100 Q 80 85 100 85 Q 120 85 145 100" stroke="#3d4a6b" stroke-width="1.2" fill="none" stroke-linecap="round" opacity="0.3"/>
  <path d="M 60 115 Q 85 100 100 100 Q 115 100 140 115" stroke="#3d4a6b" stroke-width="1.2" fill="none" stroke-linecap="round" opacity="0.3"/>
  <path d="M 70 88 l 3 -8 l 3 8 z" fill="#3d4a6b" opacity="0.5"/>
  <path d="M 90 83 l 3 -8 l 3 8 z" fill="#3d4a6b" opacity="0.5"/>
  <path d="M 110 83 l 3 -8 l 3 8 z" fill="#3d4a6b" opacity="0.5"/>
  <path d="M 130 88 l 3 -8 l 3 8 z" fill="#3d4a6b" opacity="0.5"/>
  <ellipse cx="48" cy="115" rx="20" ry="16" fill="#faf2dc"/>
  <ellipse cx="55" cy="98" rx="4" ry="5" fill="#faf2dc"/>
  <ellipse cx="70" cy="140" rx="7" ry="4" fill="#8c6f55"/>
  <ellipse cx="130" cy="140" rx="7" ry="4" fill="#8c6f55"/>
  <ellipse cx="32" cy="115" rx="3.5" ry="3" fill="#3d4a6b"/>
  <path d="M 45 110 Q 49 107 53 110" stroke="#3d4a6b" stroke-width="1.8" fill="none" stroke-linecap="round"/>
  <circle cx="50" cy="122" r="3" fill="#d8a89a" opacity="0.5"/>
</svg>
