<svg xmlns="http://www.w3.org/2000/svg" viewBox="0 0 200 200">
  <rect x="80" y="130" width="10" height="45" rx="4" fill="#b89878"/>
  <rect x="130" y="130" width="10" height="45" rx="4" fill="#b89878"/>
  <rect x="96" y="130" width="9" height="45" rx="4" fill="#b89878"/>
  <rect x="115" y="130" width="9" height="45" rx="4" fill="#b89878"/>
  <ellipse cx="85" cy="176" rx="6" ry="3" fill="#3d4a6b"/>
  <ellipse cx="135" cy="176" rx="6" ry="3" fill="#3d4a6b"/>
  <ellipse cx="100" cy="176" rx="5" ry="3" fill="#3d4a6b"/>
  <ellipse cx="119" cy="176" rx="5" ry="3" fill="#3d4a6b"/>
  <ellipse cx="110" cy="118" rx="42" ry="25" fill="#b89878"/>
  <ellipse cx="110" cy="128" rx="28" ry="14" fill="#faf2dc"/>
  <circle cx="95" cy="108" r="3" fill="#faf2dc"/>
  <circle cx="108" cy="103" r="2.5" fill="#faf2dc"/>
  <circle cx="123" cy="108" r="3" fill="#faf2dc"/>
  <circle cx="132" cy="105" r="2.5" fill="#faf2dc"/>
  <circle cx="87" cy="118" r="2.5" fill="#faf2dc"/>
  <ellipse cx="152" cy="111" rx="4" ry="6" fill="#b89878"/>
  <ellipse cx="152" cy="113" rx="2.5" ry="4" fill="#faf2dc"/>
  <path d="M 72 112 Q 52 80 60 50 L 80 48 Q 80 80 90 108 Z" fill="#b89878"/>
  <path d="M 48 50 Q 35 25 55 18 Q 78 20 85 45 Q 80 62 60 60 Z" fill="#b89878"/>
  <ellipse cx="55" cy="30" rx="10" ry="7" fill="#faf2dc"/>
  <path d="M 78 30 Q 90 15 88 30 Q 85 40 80 42 Z" fill="#b89878"/>
  <path d="M 70 22 Q 75 8 65 15 Q 65 25 72 32 Z" fill="#b89878"/>
  <path d="M 79 30 Q 85 22 84 30 Q 82 36 79 36 Z" fill="#d8a89a" opacity="0.6"/>
  <path d="M 70 22 Q 73 14 67 18 Q 67 24 71 30 Z" fill="#d8a89a" opacity="0.6"/>
  <path d="M 65 42 Q 69 39 73 42" stroke="#3d4a6b" stroke-width="1.8" fill="none" stroke-linecap="round"/>
  <ellipse cx="45" cy="25" rx="2.5" ry="2" fill="#3d4a6b"/>
  <circle cx="75" cy="50" r="3.5" fill="#d8a89a" opacity="0.5"/>
</svg>
