<svg xmlns="http://www.w3.org/2000/svg" viewBox="0 0 200 200">
  <path d="M 48 140 Q 25 115 32 155 Q 40 182 70 175 Q 58 160 55 145 Z" fill="#b89878"/>
  <path d="M 35 152 Q 30 162 38 170 Q 48 170 50 162 Q 42 155 35 152 Z" fill="#faf2dc"/>
  <ellipse cx="100" cy="140" rx="46" ry="28" fill="#b89878"/>
  <ellipse cx="100" cy="148" rx="26" ry="16" fill="#faf2dc"/>
  <rect x="78" y="155" width="14" height="24" rx="7" fill="#b89878"/>
  <rect x="108" y="155" width="14" height="24" rx="7" fill="#b89878"/>
  <ellipse cx="85" cy="180" rx="8" ry="3" fill="#8c6f55"/>
  <ellipse cx="115" cy="180" rx="8" ry="3" fill="#8c6f55"/>
  <path d="M 90 130 Q 100 148 110 130 Q 108 120 100 118 Q 92 120 90 130 Z" fill="#faf2dc"/>
  <path d="M 100 62 C 72 62 62 88 70 112 C 78 128 90 130 100 128 C 110 130 122 128 130 112 C 138 88 128 62 100 62 Z" fill="#b89878"/>
  <path d="M 72 68 L 65 38 Q 78 44 86 60 Z" fill="#b89878"/>
  <path d="M 128 68 L 135 38 Q 122 44 114 60 Z" fill="#b89878"/>
  <path d="M 74 60 L 72 46 L 82 56 Z" fill="#d8a89a"/>
  <path d="M 126 60 L 128 46 L 118 56 Z" fill="#d8a89a"/>
  <path d="M 86 98 Q 100 128 114 98 Q 108 86 100 86 Q 92 86 86 98 Z" fill="#faf2dc"/>
  <ellipse cx="100" cy="106" rx="3.5" ry="3" fill="#3d4a6b"/>
  <path d="M 100 110 L 100 114" stroke="#3d4a6b" stroke-width="1.2" stroke-linecap="round"/>
  <path d="M 100 114 Q 96 118 94 116" stroke="#3d4a6b" stroke-width="1.2" fill="none" stroke-linecap="round"/>
  <path d="M 100 114 Q 104 118 106 116" stroke="#3d4a6b" stroke-width="1.2" fill="none" stroke-linecap="round"/>
  <path d="M 82 90 Q 87 86 92 90" stroke="#3d4a6b" stroke-width="2" fill="none" stroke-linecap="round"/>
  <path d="M 108 90 Q 113 86 118 90" stroke="#3d4a6b" stroke-width="2" fill="none" stroke-linecap="round"/>
  <circle cx="78" cy="104" r="4" fill="#d8a89a" opacity="0.5"/>
  <circle cx="122" cy="104" r="4" fill="#d8a89a" opacity="0.5"/>
</svg>
