<svg xmlns="http://www.w3.org/2000/svg" viewBox="0 0 100 100">
  <path d="M 3 58 Q 30 50 60 53 Q 82 55 97 52 L 97 60 Q 82 62 60 60 Q 30 62 3 65 Z" fill="#8c6f55"/>
  <path d="M 8 56 Q 35 52 75 55" stroke="#b89878" stroke-width="1.5" fill="none" stroke-linecap="round" opacity="0.7"/>
  <path d="M 35 53 Q 40 42 44 35" stroke="#8c6f55" stroke-width="3" fill="none" stroke-linecap="round"/>
  <path d="M 44 35 Q 50 32 52 37 Q 48 41 44 38 Z" fill="#5d7968"/>
  <path d="M 39 43 Q 45 41 46 46 Q 41 47 39 43 Z" fill="#8ba591"/>
  <path d="M 72 54 Q 78 46 84 42" stroke="#8c6f55" stroke-width="2.5" fill="none" stroke-linecap="round"/>
  <path d="M 84 42 Q 90 40 90 46 Q 85 47 84 42 Z" fill="#5d7968"/>
</svg>
