<svg xmlns="http://www.w3.org/2000/svg" viewBox="0 0 400 300">
  <path d="M 0 200 Q 150 185 280 200 Q 400 205 400 210 L 400 240 L 0 240 Z" fill="#6b7a98" opacity="0.35"/>
  <path d="M 0 230 Q 200 220 400 230 L 400 260 L 0 260 Z" fill="#5d7968" opacity="0.6"/>
  <path d="M 0 250 Q 200 240 400 250 L 400 300 L 0 300 Z" fill="#8ba591"/>
  <circle cx="310" cy="85" r="55" fill="#f5ead0" opacity="0.08"/>
  <circle cx="310" cy="85" r="45" fill="#f5ead0" opacity="0.18"/>
  <circle cx="310" cy="85" r="35" fill="#f5ead0"/>
  <circle cx="300" cy="78" r="5" fill="#e8c97a" opacity="0.4"/>
  <circle cx="316" cy="92" r="4" fill="#e8c97a" opacity="0.35"/>
  <g fill="#f5ead0">
    <circle cx="50" cy="50" r="2"/>
    <circle cx="110" cy="80" r="1.5"/>
    <circle cx="160" cy="40" r="1.5"/>
    <circle cx="220" cy="70" r="1.5"/>
    <circle cx="80" cy="130" r="1"/>
    <circle cx="250" cy="130" r="1.2"/>
    <circle cx="370" cy="60" r="1.5"/>
    <circle cx="60" cy="100" r="1"/>
  </g>
  <g fill="#e8c97a">
    <path d="M 130 55 L 132 61 L 138 63 L 132 65 L 130 71 L 128 65 L 122 63 L 128 61 Z"/>
    <path d="M 280 45 L 282 50 L 287 52 L 282 54 L 280 59 L 278 54 L 273 52 L 278 50 Z"/>
  </g>
  <path d="M 150 195 L 162 195 L 150 205 L 162 205" stroke="#6b7a98" stroke-width="2.5" fill="none" stroke-linecap="round" stroke-linejoin="round" opacity="0.6"/>
  <path d="M 172 180 L 182 180 L 172 188 L 182 188" stroke="#6b7a98" stroke-width="2" fill="none" stroke-linecap="round" stroke-linejoin="round" opacity="0.5"/>
  <ellipse cx="200" cy="255" rx="50" ry="18" fill="#8c6f55"/>
  <ellipse cx="200" cy="251" rx="42" ry="14" fill="#b89878"/>
  <ellipse cx="200" cy="250" rx="32" ry="10" fill="#faf2dc"/>
  <path d="M 160 258 Q 175 254 195 257 Q 215 254 235 257" stroke="#8c6f55" stroke-width="1" fill="none" opacity="0.6"/>
  <g stroke="#5d7968" stroke-width="1.5" stroke-linecap="round" fill="none">
    <path d="M 60 275 L 60 267 M 63 275 L 63 263"/>
    <path d="M 340 275 L 340 267 M 343 275 L 343 263"/>
    <path d="M 100 280 L 100 272"/>
    <path d="M 300 278 L 300 270"/>
  </g>
  <g>
    <line x1="80" y1="270" x2="80" y2="278" stroke="#5d7968" stroke-width="0.8" stroke-linecap="round"/>
    <circle cx="80" cy="268" r="2.5" fill="#faf2dc"/>
    <circle cx="80" cy="268" r="1" fill="#e8c97a"/>
  </g>
  <g>
    <line x1="320" y1="273" x2="320" y2="281" stroke="#5d7968" stroke-width="0.8" stroke-linecap="round"/>
    <circle cx="320" cy="271" r="2.5" fill="#d8a89a"/>
    <circle cx="320" cy="271" r="1" fill="#faf2dc"/>
  </g>
</svg>
