<svg xmlns="http://www.w3.org/2000/svg" viewBox="0 0 400 300">
  <path d="M 0 210 Q 100 190 200 200 Q 300 210 400 195 L 400 250 L 0 250 Z" fill="#6b7a98" opacity="0.5"/>
  <path d="M 0 230 Q 150 210 280 225 Q 400 220 400 230 L 400 280 L 0 280 Z" fill="#5d7968" opacity="0.7"/>
  <path d="M 0 250 Q 200 240 400 250 L 400 300 L 0 300 Z" fill="#8ba591"/>
  <g fill="#5d7968">
    <path d="M 40 240 L 50 180 L 60 240 Z"/>
    <path d="M 340 235 L 350 175 L 360 235 Z"/>
  </g>
  <rect x="70" y="210" width="10" height="45" fill="#3d4a6b"/>
  <ellipse cx="75" cy="200" rx="22" ry="25" fill="#5d7968"/>
  <ellipse cx="72" cy="188" rx="15" ry="14" fill="#8ba591" opacity="0.5"/>
  <rect x="320" y="215" width="10" height="45" fill="#3d4a6b"/>
  <ellipse cx="325" cy="205" rx="22" ry="25" fill="#5d7968"/>
  <ellipse cx="322" cy="193" rx="15" ry="14" fill="#8ba591" opacity="0.5"/>
  <circle cx="200" cy="90" r="48" fill="#f5ead0" opacity="0.1"/>
  <circle cx="200" cy="90" r="35" fill="#f5ead0"/>
  <circle cx="190" cy="82" r="6" fill="#e8c97a" opacity="0.5"/>
  <circle cx="208" cy="95" r="4" fill="#e8c97a" opacity="0.4"/>
  <g fill="#f5ead0">
    <circle cx="50" cy="50" r="2"/>
    <circle cx="110" cy="80" r="1.5"/>
    <circle cx="150" cy="40" r="1.5"/>
    <circle cx="270" cy="50" r="1.8"/>
    <circle cx="320" cy="100" r="1.5"/>
    <circle cx="360" cy="60" r="1.2"/>
    <circle cx="80" cy="140" r="1"/>
    <circle cx="300" cy="140" r="1.2"/>
  </g>
  <circle cx="150" cy="275" r="3" fill="#faf2dc"/>
  <circle cx="150" cy="275" r="1.5" fill="#e8c97a"/>
  <circle cx="250" cy="278" r="3" fill="#d8a89a"/>
  <circle cx="250" cy="278" r="1.5" fill="#faf2dc"/>
  <rect x="105" y="272" width="5" height="8" fill="#faf2dc"/>
  <ellipse cx="107" cy="272" rx="7" ry="4" fill="#d8a89a"/>
  <circle cx="105" cy="271" r="1" fill="#faf2dc"/>
  <circle cx="110" cy="272" r="0.8" fill="#faf2dc"/>
  <g stroke="#5d7968" stroke-width="1.5" stroke-linecap="round" fill="none">
    <path d="M 180 278 L 180 270 M 183 278 L 183 268"/>
    <path d="M 220 280 L 220 272 M 223 280 L 223 270"/>
  </g>
</svg>
